<svg width="567" height="207" viewBox="0 0 567 207" fill="none" xmlns="http://www.w3.org/2000/svg">
    <path d="M0.03125 73V4.75H22.3438C29.75 4.75 35.3125 6.28125 39.0312 9.34375C42.7812 12.4062 44.6562 16.9375 44.6562 22.9375C44.6562 26.125 43.75 28.9531 41.9375 31.4219C40.125 33.8594 37.6562 35.75 34.5312 37.0938C38.2188 38.125 41.125 40.0938 43.25 43C45.4062 45.875 46.4844 49.3125 46.4844 53.3125C46.4844 59.4375 44.5 64.25 40.5312 67.75C36.5625 71.25 30.9531 73 23.7031 73H0.03125ZM9.03125 41.0781V65.6406H23.8906C28.0781 65.6406 31.375 64.5625 33.7812 62.4062C36.2188 60.2188 37.4375 57.2188 37.4375 53.4062C37.4375 45.1875 32.9688 41.0781 24.0312 41.0781H9.03125ZM9.03125 33.8594H22.625C26.5625 33.8594 29.7031 32.875 32.0469 30.9062C34.4219 28.9375 35.6094 26.2656 35.6094 22.8906C35.6094 19.1406 34.5156 16.4219 32.3281 14.7344C30.1406 13.0156 26.8125 12.1562 22.3438 12.1562H9.03125V33.8594ZM430.344 160.219C430.344 152.438 432.188 146.188 435.875 141.469C439.562 136.719 444.391 134.344 450.359 134.344C456.297 134.344 461 136.375 464.469 140.438V114H473.141V186H465.172L464.75 180.562C461.281 184.812 456.453 186.938 450.266 186.938C444.391 186.938 439.594 184.531 435.875 179.719C432.188 174.906 430.344 168.625 430.344 160.875V160.219ZM439.016 161.203C439.016 166.953 440.203 171.453 442.578 174.703C444.953 177.953 448.234 179.578 452.422 179.578C457.922 179.578 461.938 177.109 464.469 172.172V148.875C461.875 144.094 457.891 141.703 452.516 141.703C448.266 141.703 444.953 143.344 442.578 146.625C440.203 149.906 439.016 154.766 439.016 161.203Z" fill="#EF83A2"/>
    <path d="M89.7969 73C89.2969 72 88.8906 70.2188 88.5781 67.6562C84.5469 71.8438 79.7344 73.9375 74.1406 73.9375C69.1406 73.9375 65.0312 72.5312 61.8125 69.7188C58.625 66.875 57.0312 63.2812 57.0312 58.9375C57.0312 53.6562 59.0312 49.5625 63.0312 46.6562C67.0625 43.7188 72.7188 42.25 80 42.25H88.4375V38.2656C88.4375 35.2344 87.5312 32.8281 85.7188 31.0469C83.9062 29.2344 81.2344 28.3281 77.7031 28.3281C74.6094 28.3281 72.0156 29.1094 69.9219 30.6719C67.8281 32.2344 66.7812 34.125 66.7812 36.3438H58.0625C58.0625 33.8125 58.9531 31.375 60.7344 29.0312C62.5469 26.6562 64.9844 24.7812 68.0469 23.4062C71.1406 22.0312 74.5312 21.3438 78.2188 21.3438C84.0625 21.3438 88.6406 22.8125 91.9531 25.75C95.2656 28.6562 96.9844 32.6719 97.1094 37.7969V61.1406C97.1094 65.7969 97.7031 69.5 98.8906 72.25V73H89.7969ZM75.4062 66.3906C78.125 66.3906 80.7031 65.6875 83.1406 64.2812C85.5781 62.875 87.3438 61.0469 88.4375 58.7969V48.3906H81.6406C71.0156 48.3906 65.7031 51.5 65.7031 57.7188C65.7031 60.4375 66.6094 62.5625 68.4219 64.0938C70.2344 65.625 72.5625 66.3906 75.4062 66.3906ZM402.219 73H393.547V22.2812H402.219V73ZM392.844 8.82812C392.844 7.42188 393.266 6.23438 394.109 5.26562C394.984 4.29687 396.266 3.8125 397.953 3.8125C399.641 3.8125 400.922 4.29687 401.797 5.26562C402.672 6.23438 403.109 7.42188 403.109 8.82812C403.109 10.2344 402.672 11.4062 401.797 12.3438C400.922 13.2812 399.641 13.75 397.953 13.75C396.266 13.75 394.984 13.2812 394.109 12.3438C393.266 11.4062 392.844 10.2344 392.844 8.82812Z" fill="#52B45F"/>
    <path d="M135.219 30.0625C133.906 29.8438 132.484 29.7344 130.953 29.7344C125.266 29.7344 121.406 32.1562 119.375 37V73H110.703V22.2812H119.141L119.281 28.1406C122.125 23.6094 126.156 21.3438 131.375 21.3438C133.062 21.3438 134.344 21.5625 135.219 22V30.0625ZM537.453 181.453C537.453 179.953 537.891 178.703 538.766 177.703C539.672 176.703 541.016 176.203 542.797 176.203C544.578 176.203 545.922 176.703 546.828 177.703C547.766 178.703 548.234 179.953 548.234 181.453C548.234 182.891 547.766 184.094 546.828 185.062C545.922 186.031 544.578 186.516 542.797 186.516C541.016 186.516 539.672 186.031 538.766 185.062C537.891 184.094 537.453 182.891 537.453 181.453Z" fill="#679DD3"/>
    <path d="M164.281 73.9375C157.406 73.9375 151.812 71.6875 147.5 67.1875C143.188 62.6562 141.031 56.6094 141.031 49.0469V47.4531C141.031 42.4219 141.984 37.9375 143.891 34C145.828 30.0312 148.516 26.9375 151.953 24.7188C155.422 22.4688 159.172 21.3438 163.203 21.3438C169.797 21.3438 174.922 23.5156 178.578 27.8594C182.234 32.2031 184.062 38.4219 184.062 46.5156V50.125H149.703C149.828 55.125 151.281 59.1719 154.062 62.2656C156.875 65.3281 160.438 66.8594 164.75 66.8594C167.812 66.8594 170.406 66.2344 172.531 64.9844C174.656 63.7344 176.516 62.0781 178.109 60.0156L183.406 64.1406C179.156 70.6719 172.781 73.9375 164.281 73.9375ZM163.203 28.4688C159.703 28.4688 156.766 29.75 154.391 32.3125C152.016 34.8438 150.547 38.4062 149.984 43H175.391V42.3438C175.141 37.9375 173.953 34.5312 171.828 32.125C169.703 29.6875 166.828 28.4688 163.203 28.4688Z" fill="#EF84A0"/>
    <path d="M222.219 73V28.9844H214.203V22.2812H222.219V17.0781C222.219 11.6406 223.672 7.4375 226.578 4.46875C229.484 1.5 233.594 0.015625 238.906 0.015625C240.906 0.015625 242.891 0.28125 244.859 0.8125L244.391 7.84375C242.922 7.5625 241.359 7.42188 239.703 7.42188C236.891 7.42188 234.719 8.25 233.188 9.90625C231.656 11.5313 230.891 13.875 230.891 16.9375V22.2812H241.719V28.9844H230.891V73H222.219Z" fill="#F2A94C"/>
    <path d="M249.031 47.1719C249.031 42.2031 250 37.7344 251.938 33.7656C253.906 29.7969 256.625 26.7344 260.094 24.5781C263.594 22.4219 267.578 21.3438 272.047 21.3438C278.953 21.3438 284.531 23.7344 288.781 28.5156C293.062 33.2969 295.203 39.6562 295.203 47.5938V48.2031C295.203 53.1406 294.25 57.5781 292.344 61.5156C290.469 65.4219 287.766 68.4688 284.234 70.6562C280.734 72.8438 276.703 73.9375 272.141 73.9375C265.266 73.9375 259.688 71.5469 255.406 66.7656C251.156 61.9844 249.031 55.6562 249.031 47.7812V47.1719ZM257.75 48.2031C257.75 53.8281 259.047 58.3438 261.641 61.75C264.266 65.1562 267.766 66.8594 272.141 66.8594C276.547 66.8594 280.047 65.1406 282.641 61.7031C285.234 58.2344 286.531 53.3906 286.531 47.1719C286.531 41.6094 285.203 37.1094 282.547 33.6719C279.922 30.2031 276.422 28.4688 272.047 28.4688C267.766 28.4688 264.312 30.1719 261.688 33.5781C259.062 36.9844 257.75 41.8594 257.75 48.2031Z" fill="#984398"/>
    <path d="M330.594 30.0625C329.281 29.8438 327.859 29.7344 326.328 29.7344C320.641 29.7344 316.781 32.1562 314.75 37V73H306.078V22.2812H314.516L314.656 28.1406C317.5 23.6094 321.531 21.3438 326.75 21.3438C328.438 21.3438 329.719 21.5625 330.594 22V30.0625ZM305.516 135.281L305.75 140.906C309.469 136.531 314.484 134.344 320.797 134.344C327.891 134.344 332.719 137.062 335.281 142.5C336.969 140.062 339.156 138.094 341.844 136.594C344.562 135.094 347.766 134.344 351.453 134.344C362.578 134.344 368.234 140.234 368.422 152.016V186H359.75V152.531C359.75 148.906 358.922 146.203 357.266 144.422C355.609 142.609 352.828 141.703 348.922 141.703C345.703 141.703 343.031 142.672 340.906 144.609C338.781 146.516 337.547 149.094 337.203 152.344V186H328.484V152.766C328.484 145.391 324.875 141.703 317.656 141.703C311.969 141.703 308.078 144.125 305.984 148.969V186H297.312V135.281H305.516Z" fill="#BF9FC6"/>
    <path d="M336.5 47.2188C336.5 39.4375 338.344 33.1875 342.031 28.4688C345.719 23.7188 350.547 21.3438 356.516 21.3438C362.453 21.3438 367.156 23.375 370.625 27.4375V1H379.297V73H371.328L370.906 67.5625C367.438 71.8125 362.609 73.9375 356.422 73.9375C350.547 73.9375 345.75 71.5312 342.031 66.7188C338.344 61.9062 336.5 55.625 336.5 47.875V47.2188ZM345.172 48.2031C345.172 53.9531 346.359 58.4531 348.734 61.7031C351.109 64.9531 354.391 66.5781 358.578 66.5781C364.078 66.5781 368.094 64.1094 370.625 59.1719V35.875C368.031 31.0938 364.047 28.7031 358.672 28.7031C354.422 28.7031 351.109 30.3438 348.734 33.625C346.359 36.9062 345.172 41.7656 345.172 48.2031Z" fill="#EA332B"/>
    <path d="M437.844 47.2188C437.844 39.4375 439.688 33.1875 443.375 28.4688C447.062 23.7188 451.891 21.3438 457.859 21.3438C463.797 21.3438 468.5 23.375 471.969 27.4375V1H480.641V73H472.672L472.25 67.5625C468.781 71.8125 463.953 73.9375 457.766 73.9375C451.891 73.9375 447.094 71.5312 443.375 66.7188C439.688 61.9062 437.844 55.625 437.844 47.875V47.2188ZM446.516 48.2031C446.516 53.9531 447.703 58.4531 450.078 61.7031C452.453 64.9531 455.734 66.5781 459.922 66.5781C465.422 66.5781 469.438 64.1094 471.969 59.1719V35.875C469.375 31.0938 465.391 28.7031 460.016 28.7031C455.766 28.7031 452.453 30.3438 450.078 33.625C447.703 36.9062 446.516 41.7656 446.516 48.2031ZM244.672 173.297L256.484 135.281H265.766L245.375 193.828C242.219 202.266 237.203 206.484 230.328 206.484L228.688 206.344L225.453 205.734V198.703L227.797 198.891C230.734 198.891 233.016 198.297 234.641 197.109C236.297 195.922 237.656 193.75 238.719 190.594L240.641 185.438L222.547 135.281H232.016L244.672 173.297Z" fill="#5AC5CD"/>
    <path d="M515.188 73.9375C508.312 73.9375 502.719 71.6875 498.406 67.1875C494.094 62.6562 491.938 56.6094 491.938 49.0469V47.4531C491.938 42.4219 492.891 37.9375 494.797 34C496.734 30.0312 499.422 26.9375 502.859 24.7188C506.328 22.4688 510.078 21.3438 514.109 21.3438C520.703 21.3438 525.828 23.5156 529.484 27.8594C533.141 32.2031 534.969 38.4219 534.969 46.5156V50.125H500.609C500.734 55.125 502.188 59.1719 504.969 62.2656C507.781 65.3281 511.344 66.8594 515.656 66.8594C518.719 66.8594 521.312 66.2344 523.438 64.9844C525.562 63.7344 527.422 62.0781 529.016 60.0156L534.312 64.1406C530.062 70.6719 523.688 73.9375 515.188 73.9375ZM514.109 28.4688C510.609 28.4688 507.672 29.75 505.297 32.3125C502.922 34.8438 501.453 38.4062 500.891 43H526.297V42.3438C526.047 37.9375 524.859 34.5312 522.734 32.125C520.609 29.6875 517.734 28.4688 514.109 28.4688Z" fill="#A4D0E7"/>
    <path d="M556.812 10V22.2812H566.281V28.9844H556.812V60.4375C556.812 62.4688 557.234 64 558.078 65.0312C558.922 66.0312 560.359 66.5312 562.391 66.5312C563.391 66.5312 564.766 66.3438 566.516 65.9688V73C564.234 73.625 562.016 73.9375 559.859 73.9375C555.984 73.9375 553.062 72.7656 551.094 70.4219C549.125 68.0781 548.141 64.75 548.141 60.4375V28.9844H538.906V22.2812H548.141V10H556.812ZM402.594 186.938C395.719 186.938 390.125 184.688 385.812 180.188C381.5 175.656 379.344 169.609 379.344 162.047V160.453C379.344 155.422 380.297 150.938 382.203 147C384.141 143.031 386.828 139.938 390.266 137.719C393.734 135.469 397.484 134.344 401.516 134.344C408.109 134.344 413.234 136.516 416.891 140.859C420.547 145.203 422.375 151.422 422.375 159.516V163.125H388.016C388.141 168.125 389.594 172.172 392.375 175.266C395.188 178.328 398.75 179.859 403.062 179.859C406.125 179.859 408.719 179.234 410.844 177.984C412.969 176.734 414.828 175.078 416.422 173.016L421.719 177.141C417.469 183.672 411.094 186.938 402.594 186.938ZM401.516 141.469C398.016 141.469 395.078 142.75 392.703 145.312C390.328 147.844 388.859 151.406 388.297 156H413.703V155.344C413.453 150.938 412.266 147.531 410.141 145.125C408.016 142.688 405.141 141.469 401.516 141.469ZM512.141 181.453C512.141 179.953 512.578 178.703 513.453 177.703C514.359 176.703 515.703 176.203 517.484 176.203C519.266 176.203 520.609 176.703 521.516 177.703C522.453 178.703 522.922 179.953 522.922 181.453C522.922 182.891 522.453 184.094 521.516 185.062C520.609 186.031 519.266 186.516 517.484 186.516C515.703 186.516 514.359 186.031 513.453 185.062C512.578 184.094 512.141 182.891 512.141 181.453Z" fill="#F6D55C"/>
    <path d="M33.5938 186.938C26.7188 186.938 21.125 184.688 16.8125 180.188C12.5 175.656 10.3438 169.609 10.3438 162.047V160.453C10.3438 155.422 11.2969 150.938 13.2031 147C15.1406 143.031 17.8281 139.938 21.2656 137.719C24.7344 135.469 28.4844 134.344 32.5156 134.344C39.1094 134.344 44.2344 136.516 47.8906 140.859C51.5469 145.203 53.375 151.422 53.375 159.516V163.125H19.0156C19.1406 168.125 20.5938 172.172 23.375 175.266C26.1875 178.328 29.75 179.859 34.0625 179.859C37.125 179.859 39.7188 179.234 41.8438 177.984C43.9688 176.734 45.8281 175.078 47.4219 173.016L52.7188 177.141C48.4688 183.672 42.0938 186.938 33.5938 186.938ZM32.5156 141.469C29.0156 141.469 26.0781 142.75 23.7031 145.312C21.3281 147.844 19.8594 151.406 19.2969 156H44.7031V155.344C44.4531 150.938 43.2656 147.531 41.1406 145.125C39.0156 142.688 36.1406 141.469 32.5156 141.469Z" fill="#E93336"/>
    <path d="M87.9688 143.062C86.6562 142.844 85.2344 142.734 83.7031 142.734C78.0156 142.734 74.1562 145.156 72.125 150V186H63.4531V135.281H71.8906L72.0312 141.141C74.875 136.609 78.9062 134.344 84.125 134.344C85.8125 134.344 87.0938 134.562 87.9688 135V143.062Z" fill="#679ED1"/>
    <path d="M117.734 160.219C117.734 152.312 119.562 146.031 123.219 141.375C126.875 136.688 131.719 134.344 137.75 134.344C143.938 134.344 148.766 136.531 152.234 140.906L152.656 135.281H160.578V184.781C160.578 191.344 158.625 196.516 154.719 200.297C150.844 204.078 145.625 205.969 139.062 205.969C135.406 205.969 131.828 205.188 128.328 203.625C124.828 202.062 122.156 199.922 120.312 197.203L124.812 192C128.531 196.594 133.078 198.891 138.453 198.891C142.672 198.891 145.953 197.703 148.297 195.328C150.672 192.953 151.859 189.609 151.859 185.297V180.938C148.391 184.938 143.656 186.938 137.656 186.938C131.719 186.938 126.906 184.547 123.219 179.766C119.562 174.984 117.734 168.469 117.734 160.219ZM126.453 161.203C126.453 166.922 127.625 171.422 129.969 174.703C132.312 177.953 135.594 179.578 139.812 179.578C145.281 179.578 149.297 177.094 151.859 172.125V148.969C149.203 144.125 145.219 141.703 139.906 141.703C135.688 141.703 132.391 143.344 130.016 146.625C127.641 149.906 126.453 154.766 126.453 161.203Z" fill="#974399"/>
    <path d="M171.406 160.172C171.406 155.203 172.359 150.75 174.266 146.812C176.203 142.844 178.922 139.781 182.422 137.625C185.953 135.438 189.953 134.344 194.422 134.344C197.859 134.344 201.047 135 203.984 136.312L207.406 129.375H213.219L208.438 138.984C214.531 143.797 217.578 151.203 217.578 161.203C217.578 166.141 216.609 170.594 214.672 174.562C212.734 178.531 210.016 181.594 206.516 183.75C203.016 185.875 199.016 186.938 194.516 186.938C191.266 186.938 188.297 186.391 185.609 185.297L182.141 192.281H176.328L181.016 182.766C174.609 178.109 171.406 170.578 171.406 160.172ZM180.078 161.203C180.078 167.266 181.594 172.031 184.625 175.5L200.703 142.969C198.766 141.969 196.672 141.469 194.422 141.469C190.109 141.469 186.641 143.172 184.016 146.578C181.391 149.984 180.078 154.859 180.078 161.203ZM208.859 160.172C208.859 154.484 207.5 149.906 204.781 146.438L188.844 178.688C190.562 179.469 192.453 179.859 194.516 179.859C198.859 179.859 202.328 178.156 204.922 174.75C207.547 171.312 208.859 166.703 208.859 160.922V160.172ZM486.828 181.453C486.828 179.953 487.266 178.703 488.141 177.703C489.047 176.703 490.391 176.203 492.172 176.203C493.953 176.203 495.297 176.703 496.203 177.703C497.141 178.703 497.609 179.953 497.609 181.453C497.609 182.891 497.141 184.094 496.203 185.062C495.297 186.031 493.953 186.516 492.172 186.516C490.391 186.516 489.047 186.031 488.141 185.062C487.266 184.094 486.828 182.891 486.828 181.453Z" fill="#52B460"/>
</svg>
